<svg width="96" height="96" viewBox="0 0 96 96" xmlns="http://www.w3.org/2000/svg" fill="#ffffff">
  <g clip-path="url(#clip0_87_15)">
    <path
      d="M22.4555 67.7107C20.8934 69.2728 20.8934 71.8054 22.4555 73.3675C24.0177 74.9297 26.5502 74.9297 28.1124 73.3675L47.9114 53.5685L67.7104 73.3675C69.2725 74.9297 71.8051 74.9297 73.3672 73.3675C74.9294 71.8054 74.9294 69.2728 73.3672 67.7107L53.5682 47.9117L73.3672 28.1127C74.9293 26.5506 74.9294 24.018 73.3672 22.4558C71.8051 20.8937 69.2725 20.8938 67.7104 22.4558L47.9114 42.2548L28.1124 22.4558C26.5503 20.8938 24.0177 20.8937 22.4555 22.4558C20.8934 24.018 20.8934 26.5506 22.4555 28.1127L42.2545 47.9117L22.4555 67.7107Z" />
  </g>
</svg>