<svg width="96" height="96" viewBox="0 0 96 96" fill="#ffffff" xmlns="http://www.w3.org/2000/svg">
  <g clip-path="url(#clip0_134_54)">
    <path fill-rule="evenodd" clip-rule="evenodd"
      d="M66.8972 12.12C63.7728 8.99581 58.7076 8.99581 55.5832 12.12L14.3285 53.3748C12.8282 54.8752 11.9854 56.91 11.9854 59.0316V79.9624C11.9854 82.1936 13.7943 84.0024 16.0254 84.0024L80 84C82.2092 84 84 82.2092 84 80C84 77.7908 82.2092 76 80 76H48.272L83.8676 40.4044C86.9916 37.2801 86.9916 32.2148 83.8676 29.0906L66.8972 12.12ZM36.9583 76L78.2108 34.7474L61.24 17.7768L19.9854 59.0316V76.0024C25.643 76.0024 31.3008 76 36.9583 76Z" />
  </g>
</svg>