<svg width="683" height="683" viewBox="0 0 683 683" fill="#14A547" xmlns="http://www.w3.org/2000/svg">
  <path
    d="M646.613 1.0187C653.92 0.258697 660.36 -1.16797 667.44 1.79203C676.547 5.4187 682.427 14.352 682.667 24.112V537.125C682.2 554.525 676.573 570.819 666.32 584.859C651.707 605.152 629.347 619.352 605.707 626.832C579.48 635.165 550.853 635.899 524.16 629.232C501.24 623.432 479.133 611.725 462.947 594.299C449.747 580.139 440.813 562.299 439.253 542.859C437.747 525.672 442.173 508.392 451.173 493.739C463.907 472.792 484.733 457.525 507.36 448.712C543.12 434.712 584.213 435.685 619.293 451.259C624.16 453.725 629.013 456.232 633.907 458.672C633.92 363.592 633.92 268.525 633.907 173.445C503.88 187.925 373.827 202.405 243.8 216.912C243.773 339.219 243.84 461.619 243.773 583.912C243.8 599.365 239.653 614.299 231.56 627.459C219.093 647.899 199.32 662.792 177.347 671.792C160.12 678.899 141.733 682.205 123.133 682.565H120.6C92.7867 682.032 65.4667 674.712 42.4267 658.845C27.48 648.525 14.7333 634.605 7.24 617.952C2.64 607.792 0.32 596.832 0 585.699V583.992C0.373333 573.125 2.64 562.419 7.09333 552.472C14.7067 535.325 27.5867 521.365 42.9867 510.859C66.16 495.085 94.72 487.379 122.64 487.619C132.133 488.125 141.507 488.299 150.773 490.685C159.72 491.992 167.893 495.352 176.36 498.299C182.773 500.939 188.787 504.512 195.027 507.512C195.04 365.859 195.04 224.219 195.04 82.5654C195.067 78.4587 194.867 74.2854 195.293 70.192C196.24 61.472 202.24 53.6187 210.413 50.432C215 48.672 220.48 48.4454 225.333 47.8587C365.76 32.2454 506.187 16.632 646.613 1.0187Z" />
</svg>