<svg width="96" height="96" viewBox="0 0 96 96" fill="#white" xmlns="http://www.w3.org/2000/svg">
  <g clip-path="url(#clip0_14_87)">
    <path
      d="M24 42C27.3137 42 30 44.6864 30 48C30 51.3136 27.3137 54 24 54C20.6863 54 18 51.3136 18 48C18 44.6864 20.6863 42 24 42ZM48 42C51.3136 42 54 44.6864 54 48C54 51.3136 51.3136 54 48 54C44.6864 54 42 51.3136 42 48C42 44.6864 44.6864 42 48 42ZM72 42C75.3136 42 78 44.6864 78 48C78 51.3136 75.3136 54 72 54C68.6864 54 66 51.3136 66 48C66 44.6864 68.6864 42 72 42Z" />
  </g>
</svg>