<svg width="43" height="43" viewBox="0 0 43 43" fill="white" xmlns="http://www.w3.org/2000/svg">
  <g clip-path="url(#clip0_744_21)">
    <path
      d="M21.4999 3.58334C31.3949 3.58334 39.4166 11.6049 39.4166 21.5C39.4166 31.395 31.3949 39.4167 21.4999 39.4167C11.6048 39.4167 3.58325 31.395 3.58325 21.5C3.58325 11.6049 11.6048 3.58334 21.4999 3.58334ZM21.4999 7.16668C13.5838 7.16668 7.16659 13.5839 7.16659 21.5C7.16659 29.4161 13.5838 35.8333 21.4999 35.8333C29.416 35.8333 35.8333 29.4161 35.8333 21.5C35.8333 13.5839 29.416 7.16668 21.4999 7.16668ZM21.4999 10.75C22.4188 10.75 23.176 11.4417 23.2795 12.3327L23.2916 12.5417V20.7579L28.1418 25.6081C28.8415 26.3078 28.8415 27.4423 28.1418 28.1419C27.496 28.7877 26.4796 28.8374 25.7768 28.2909L25.608 28.1419L20.233 22.7669C19.9531 22.4869 19.7753 22.1238 19.7238 21.7355L19.7083 21.5V12.5417C19.7083 11.5522 20.5104 10.75 21.4999 10.75Z" />
  </g>
</svg>